<?xml version="1.0" encoding="UTF-8"?>
<!DOCTYPE svg PUBLIC "-//W3C//DTD SVG 1.1//EN" "http://www.w3.org/Graphics/SVG/1.1/DTD/svg11.dtd">
<!-- Creator: CorelDRAW Home & Student 2018 -->
<svg xmlns="http://www.w3.org/2000/svg" xml:space="preserve" width="300px" height="42px" version="1.1" style="shape-rendering:geometricPrecision; text-rendering:geometricPrecision; image-rendering:optimizeQuality; fill-rule:evenodd; clip-rule:evenodd"
viewBox="0 0 300 42"
 xmlns:xlink="http://www.w3.org/1999/xlink">
 <defs>
  <style type="text/css">
   <![CDATA[
    .str0 {stroke:black;stroke-miterlimit:22.9256}
    .fil0 {fill:none}
    .fil1 {fill:black;fill-rule:nonzero}
    .fil3 {fill:#34A852;fill-rule:nonzero}
    .fil2 {fill:#4285F4;fill-rule:nonzero}
    .fil5 {fill:#E84234;fill-rule:nonzero}
    .fil4 {fill:#F9BA05;fill-rule:nonzero}
   ]]>
  </style>
 </defs>
 <g id="Layer_x0020_1">
  <metadata id="CorelCorpID_0Corel-Layer"/>
  <rect class="fil0 str0" width="300" height="42"/>
  <g id="_974083568">
   <g>
    <g>
     <g>
      <path class="fil1" d="M148.106 9.339l0 8.5 5.242 0c1.249,0 2.281,-0.419 3.098,-1.258 0.841,-0.838 1.26,-1.837 1.26,-2.992 0,-1.133 -0.419,-2.12 -1.26,-2.96 -0.817,-0.86 -1.849,-1.292 -3.098,-1.292l-5.242 0 0 0.002zm0 11.493l0 0 0 9.861 -3.131 0 0 -24.347 8.306 0c2.11,0 3.899,0.704 5.376,2.109 1.5,1.405 2.249,3.117 2.249,5.134 0,2.063 -0.749,3.786 -2.249,5.168 -1.452,1.383 -3.245,2.074 -5.376,2.074l-5.175 0 0 0.001z"/>
      <path class="fil1" d="M164.069 25.592c0,0.817 0.345,1.496 1.039,2.041 0.693,0.543 1.502,0.816 2.433,0.816 1.318,0 2.489,-0.488 3.521,-1.462 1.033,-0.976 1.55,-2.119 1.55,-3.432 -0.976,-0.773 -2.338,-1.157 -4.084,-1.157 -1.271,0 -2.333,0.307 -3.182,0.919 -0.851,0.612 -1.277,1.368 -1.277,2.275zm4.051 -12.104l0 0c2.316,0 4.142,0.617 5.482,1.853 1.34,1.236 2.007,2.93 2.007,5.083l0 10.269 -2.995 0 0 -2.312 -0.136 0c-1.294,1.903 -3.017,2.854 -5.172,2.854 -1.838,0 -3.379,-0.542 -4.614,-1.629 -1.238,-1.09 -1.856,-2.449 -1.856,-4.083 0,-1.722 0.651,-3.092 1.956,-4.112 1.305,-1.02 3.047,-1.531 5.225,-1.531 1.86,0 3.393,0.34 4.595,1.019l0 -0.714c0,-1.088 -0.431,-2.011 -1.293,-2.77 -0.865,-0.761 -1.871,-1.139 -3.029,-1.139 -1.749,0 -3.132,0.737 -4.152,2.211l-2.759 -1.735c1.523,-2.176 3.767,-3.264 6.741,-3.264z"/>
      <g>
       <polygon class="fil1" points="192.798,14.031 182.346,38.036 179.113,38.036 182.994,29.638 176.119,14.031 179.524,14.031 184.493,26.001 184.561,26.001 189.393,14.031 "/>
      </g>
     </g>
     <g>
      <path class="fil2" d="M135.452 18.707c0,-0.985 -0.083,-1.935 -0.241,-2.846l-13.207 0 0 5.389 7.565 0c-0.325,1.756 -1.307,3.25 -2.797,4.251l0 3.498 4.514 0c2.643,-2.435 4.166,-6.036 4.166,-10.292z"/>
      <path class="fil3" d="M122.004 32.378c3.779,0 6.961,-1.24 9.282,-3.379l-4.514 -3.498c-1.257,0.845 -2.875,1.339 -4.768,1.339 -3.652,0 -6.753,-2.46 -7.862,-5.775l-4.651 0 0 3.604c2.305,4.57 7.042,7.709 12.513,7.709z"/>
      <path class="fil4" d="M114.142 21.065c-0.284,-0.845 -0.439,-1.746 -0.439,-2.678 0,-0.93 0.155,-1.831 0.439,-2.677l0 -3.604 -4.651 0c-0.952,1.889 -1.491,4.022 -1.491,6.281 0,2.26 0.539,4.395 1.491,6.282l4.651 -3.604z"/>
      <path class="fil5" d="M122.004 9.936c2.064,0 3.914,0.709 5.372,2.099l0 0.001 3.997 -3.993c-2.427,-2.257 -5.592,-3.644 -9.369,-3.644 -5.471,0 -10.208,3.137 -12.513,7.707l4.651 3.604c1.109,-3.315 4.21,-5.774 7.862,-5.774z"/>
     </g>
    </g>
   </g>
  </g>
 </g>
</svg>
