<?xml version="1.0" encoding="UTF-8"?>
<!DOCTYPE svg PUBLIC "-//W3C//DTD SVG 1.1//EN" "http://www.w3.org/Graphics/SVG/1.1/DTD/svg11.dtd">
<!-- Creator: CorelDRAW Home & Student 2018 -->
<svg xmlns="http://www.w3.org/2000/svg" xml:space="preserve" width="300px" height="42px" version="1.1" style="shape-rendering:geometricPrecision; text-rendering:geometricPrecision; image-rendering:optimizeQuality; fill-rule:evenodd; clip-rule:evenodd"
viewBox="0 0 300 42"
 xmlns:xlink="http://www.w3.org/1999/xlink">
 <defs>
  <style type="text/css">
   <![CDATA[
    .str0 {stroke:black;stroke-miterlimit:22.9256}
    .fil0 {fill:none}
    .fil1 {fill:black;fill-rule:nonzero}
   ]]>
  </style>
 </defs>
 <g id="Layer_x0020_1">
  <metadata id="CorelCorpID_0Corel-Layer"/>
  <rect class="fil0 str0" width="300" height="42"/>
  <g id="_989106816">
   <path class="fil1" d="M127.38 7.538c1.024,-1.201 1.714,-2.873 1.526,-4.538 -1.478,0.057 -3.263,0.954 -4.323,2.154 -0.949,1.063 -1.781,2.766 -1.556,4.396 1.645,0.124 3.328,-0.81 4.353,-2.012zm3.692 10.562c0.041,4.302 3.896,5.732 3.938,5.751 -0.033,0.1 -0.616,2.04 -2.03,4.042 -1.223,1.731 -2.493,3.457 -4.493,3.492 -1.964,0.035 -2.596,-1.128 -4.842,-1.128 -2.246,0 -2.947,1.093 -4.808,1.163 -1.93,0.071 -3.399,-1.872 -4.632,-3.597 -2.52,-3.529 -4.446,-9.971 -1.86,-14.32 1.284,-2.16 3.579,-3.527 6.072,-3.563 1.895,-0.034 3.684,1.236 4.842,1.236 1.158,0 3.332,-1.528 5.617,-1.304 0.957,0.039 3.643,0.375 5.367,2.82 -0.139,0.083 -3.204,1.812 -3.171,5.408z"/>
   <path class="fil1" d="M144.057 18.368c0.445,0.126 0.941,0.215 1.491,0.267 0.55,0.051 1.139,0.077 1.766,0.077 2.356,0 4.181,-0.537 5.477,-1.611 1.296,-1.073 1.944,-2.646 1.944,-4.717 0,-0.997 -0.17,-1.867 -0.511,-2.608 -0.34,-0.741 -0.824,-1.349 -1.452,-1.821 -0.628,-0.473 -1.374,-0.831 -2.237,-1.075 -0.865,-0.242 -1.82,-0.364 -2.867,-0.364 -0.837,0 -1.557,0.032 -2.159,0.096 -0.603,0.064 -1.086,0.134 -1.452,0.211l0 11.545zm-1.847 -12.887c0.76,-0.128 1.597,-0.242 2.514,-0.345 0.915,-0.102 1.923,-0.153 3.022,-0.153 1.571,0 2.926,0.185 4.064,0.556 1.139,0.37 2.074,0.901 2.807,1.592 0.629,0.613 1.12,1.341 1.473,2.185 0.353,0.845 0.53,1.815 0.53,2.915 0,1.33 -0.243,2.493 -0.727,3.49 -0.484,0.997 -1.145,1.834 -1.982,2.512 -0.838,0.677 -1.832,1.182 -2.984,1.515 -1.152,0.332 -2.409,0.498 -3.77,0.498 -1.229,0 -2.263,-0.089 -3.1,-0.268l0 11.046 -1.847 0 0 -25.543z"/>
   <path class="fil1" d="M169.451 21.167c-0.995,-0.026 -2.036,0.013 -3.122,0.115 -1.086,0.101 -2.086,0.326 -3.003,0.671 -0.916,0.345 -1.675,0.85 -2.277,1.515 -0.602,0.665 -0.903,1.547 -0.903,2.646 0,1.304 0.38,2.263 1.138,2.877 0.759,0.613 1.61,0.921 2.552,0.921 0.759,0 1.44,-0.103 2.041,-0.308 0.603,-0.205 1.126,-0.48 1.571,-0.825 0.444,-0.345 0.817,-0.734 1.119,-1.169 0.301,-0.434 0.53,-0.882 0.687,-1.342 0.131,-0.512 0.197,-0.883 0.197,-1.114l0 -3.987zm1.846 5.483c0,0.742 0.012,1.484 0.038,2.226 0.026,0.741 0.105,1.457 0.236,2.148l-1.728 0 -0.274 -2.608 -0.079 0c-0.236,0.357 -0.537,0.715 -0.903,1.074 -0.367,0.356 -0.792,0.682 -1.276,0.977 -0.484,0.294 -1.034,0.531 -1.649,0.709 -0.616,0.179 -1.29,0.269 -2.022,0.269 -0.916,0 -1.721,-0.147 -2.415,-0.442 -0.694,-0.293 -1.263,-0.677 -1.708,-1.149 -0.445,-0.474 -0.778,-1.018 -1.001,-1.631 -0.222,-0.613 -0.333,-1.226 -0.333,-1.84 0,-2.174 0.935,-3.848 2.807,-5.024 1.871,-1.177 4.692,-1.739 8.461,-1.688l0 -0.499c0,-0.485 -0.045,-1.041 -0.138,-1.669 -0.092,-0.625 -0.295,-1.22 -0.608,-1.782 -0.314,-0.563 -0.785,-1.035 -1.414,-1.419 -0.628,-0.383 -1.478,-0.574 -2.552,-0.574 -0.811,0 -1.615,0.12 -2.414,0.363 -0.798,0.243 -1.525,0.581 -2.179,1.016l-0.589 -1.343c0.837,-0.562 1.701,-0.964 2.591,-1.207 0.891,-0.243 1.819,-0.364 2.787,-0.364 1.309,0 2.376,0.216 3.2,0.651 0.825,0.436 1.473,0.998 1.944,1.687 0.471,0.69 0.792,1.464 0.963,2.321 0.169,0.857 0.255,1.706 0.255,2.55l0 7.248z"/>
   <path class="fil1" d="M174.906 12.614l4.789 11.966c0.262,0.664 0.511,1.348 0.746,2.052 0.236,0.703 0.446,1.348 0.628,1.937l0.079 0c0.183,-0.563 0.392,-1.196 0.628,-1.899 0.236,-0.703 0.497,-1.426 0.785,-2.168l4.477 -11.888 1.962 0 -5.457 13.5c-0.55,1.432 -1.067,2.73 -1.551,3.893 -0.484,1.163 -0.975,2.211 -1.472,3.145 -0.497,0.933 -1.002,1.757 -1.512,2.474 -0.51,0.716 -1.08,1.342 -1.708,1.879 -0.732,0.638 -1.407,1.105 -2.021,1.4 -0.615,0.294 -1.028,0.479 -1.237,0.555l-0.629 -1.496c0.471,-0.204 0.995,-0.473 1.57,-0.804 0.576,-0.333 1.14,-0.768 1.689,-1.305 0.471,-0.46 0.988,-1.067 1.551,-1.821 0.563,-0.754 1.067,-1.669 1.512,-2.743 0.157,-0.409 0.236,-0.677 0.236,-0.805 0,-0.179 -0.079,-0.447 -0.236,-0.806l-6.792 -17.066 1.963 0z"/>
  </g>
 </g>
</svg>
