<?xml version="1.0" encoding="UTF-8"?>
<!DOCTYPE svg PUBLIC "-//W3C//DTD SVG 1.1//EN" "http://www.w3.org/Graphics/SVG/1.1/DTD/svg11.dtd">
<!-- Creator: CorelDRAW Home & Student 2018 -->
<svg xmlns="http://www.w3.org/2000/svg" xml:space="preserve" width="300px" height="42px" version="1.1" style="shape-rendering:geometricPrecision; text-rendering:geometricPrecision; image-rendering:optimizeQuality; fill-rule:evenodd; clip-rule:evenodd"
viewBox="0 0 300 42"
 xmlns:xlink="http://www.w3.org/1999/xlink">
 <defs>
  <style type="text/css">
   <![CDATA[
    .str0 {stroke:black;stroke-miterlimit:22.9256}
    .fil0 {fill:none}
    .fil2 {fill:black}
    .fil4 {fill:#EB001B}
    .fil5 {fill:#F79E1B}
    .fil3 {fill:#FF5F00}
    .fil1 {fill:black;fill-rule:nonzero}
    .fil6 {fill:url(#id0)}
   ]]>
  </style>
  <linearGradient id="id0" gradientUnits="userSpaceOnUse" x1="234.343" y1="20.906" x2="289.5" y2="20.906">
   <stop offset="0" style="stop-opacity:1; stop-color:#322D5C"/>
   <stop offset="1" style="stop-opacity:1; stop-color:#264796"/>
  </linearGradient>
 </defs>
 <g id="Layer_x0020_1">
  <metadata id="CorelCorpID_0Corel-Layer"/>
  <rect class="fil0 str0" width="300" height="42"/>
  <path class="fil1" d="M22.665 17.602c0,-0.61 -0.115,-1.191 -0.346,-1.743 -0.232,-0.553 -0.569,-1.039 -1.014,-1.459 -0.445,-0.42 -1.001,-0.758 -1.669,-1.013 -0.667,-0.256 -1.438,-0.384 -2.312,-0.384 -0.428,0 -0.856,0.017 -1.285,0.05 -0.429,0.033 -0.833,0.074 -1.211,0.123l0 9.148c0.329,0.033 0.696,0.07 1.1,0.111 0.403,0.041 0.795,0.062 1.174,0.062 0.907,0 1.706,-0.124 2.398,-0.371 0.692,-0.247 1.273,-0.585 1.743,-1.013 0.47,-0.43 0.824,-0.944 1.063,-1.546 0.239,-0.602 0.359,-1.257 0.359,-1.965zm1.483 -0.074c0,0.906 -0.161,1.738 -0.482,2.496 -0.321,0.759 -0.787,1.41 -1.397,1.954 -0.61,0.543 -1.352,0.968 -2.225,1.273 -0.874,0.305 -1.871,0.458 -2.991,0.458 -0.33,0 -0.705,-0.017 -1.125,-0.05 -0.421,-0.033 -0.787,-0.066 -1.1,-0.099l0 6.453 -1.385 0 0 -17.999c0.593,-0.082 1.195,-0.144 1.805,-0.185 0.609,-0.042 1.253,-0.062 1.928,-0.062 1.17,0 2.193,0.157 3.066,0.47 0.873,0.313 1.598,0.733 2.175,1.261 0.577,0.527 1.01,1.137 1.298,1.83 0.289,0.692 0.433,1.425 0.433,2.2z"/>
  <path id="1" class="fil1" d="M33.592 14.413l-3.733 8.875 7.466 0 -3.733 -8.875zm6.601 15.6l-2.348 -5.538 -8.505 0 -2.324 5.538 -1.459 0 7.937 -18.419 0.246 0 7.936 18.419 -1.483 0z"/>
  <polygon id="2" class="fil1" points="50.651,21.879 50.651,30.013 49.266,30.013 49.266,21.854 42.938,11.891 44.495,11.891 50.008,20.692 55.447,11.891 56.98,11.891 "/>
  <path id="3" class="fil1" d="M74.533 25.019c0,-1.105 -0.47,-2.011 -1.409,-2.72 -0.94,-0.708 -2.357,-1.063 -4.252,-1.063 -0.33,0 -0.709,0 -1.138,0 -0.428,0 -0.832,0.017 -1.211,0.05l0 7.466c0.445,0.065 0.927,0.119 1.446,0.161 0.519,0.041 1.034,0.061 1.545,0.061 0.825,0 1.55,-0.103 2.176,-0.309 0.627,-0.206 1.149,-0.486 1.57,-0.841 0.42,-0.354 0.738,-0.77 0.952,-1.248 0.214,-0.478 0.321,-0.997 0.321,-1.557zm-0.42 -8.554c0,-1.039 -0.392,-1.892 -1.174,-2.559 -0.784,-0.668 -1.999,-1.001 -3.648,-1.001 -0.971,0 -1.895,0.074 -2.768,0.222l0 6.947c0.379,0.033 0.754,0.05 1.125,0.05 0.37,0 0.746,0 1.124,0 0.923,0 1.719,-0.096 2.386,-0.285 0.668,-0.189 1.22,-0.449 1.657,-0.778 0.436,-0.33 0.762,-0.718 0.976,-1.163 0.215,-0.444 0.322,-0.922 0.322,-1.433zm1.854 8.628c0,0.659 -0.14,1.298 -0.421,1.916 -0.28,0.618 -0.696,1.162 -1.248,1.631 -0.552,0.47 -1.241,0.845 -2.064,1.125 -0.825,0.281 -1.78,0.421 -2.868,0.421 -0.742,0 -1.463,-0.029 -2.164,-0.087 -0.7,-0.057 -1.388,-0.127 -2.063,-0.21l0 -17.875c0.675,-0.082 1.334,-0.152 1.977,-0.21 0.643,-0.058 1.335,-0.087 2.077,-0.087 1.087,0 2.027,0.124 2.818,0.371 0.791,0.247 1.446,0.581 1.965,1.002 0.52,0.42 0.907,0.911 1.163,1.471 0.255,0.56 0.383,1.145 0.383,1.756 0,1.087 -0.317,1.993 -0.952,2.718 -0.635,0.726 -1.57,1.253 -2.806,1.583 1.45,0.264 2.513,0.803 3.19,1.619 0.675,0.816 1.013,1.768 1.013,2.856z"/>
  <polygon id="4" class="fil1" points="85.387,21.879 85.387,30.013 84.002,30.013 84.002,21.854 77.673,11.891 79.231,11.891 84.743,20.692 90.183,11.891 91.716,11.891 "/>
  <path id="5" class="fil1" d="M114.906 28.282c-0.825,0.544 -1.748,1.009 -2.77,1.397 -1.022,0.387 -2.183,0.581 -3.486,0.581 -1.302,0 -2.53,-0.218 -3.683,-0.655 -1.154,-0.437 -2.164,-1.055 -3.029,-1.855 -0.866,-0.799 -1.545,-1.771 -2.04,-2.917 -0.494,-1.146 -0.741,-2.427 -0.741,-3.844 0,-1.417 0.251,-2.703 0.754,-3.857 0.502,-1.154 1.187,-2.143 2.052,-2.967 0.865,-0.824 1.875,-1.459 3.028,-1.904 1.154,-0.444 2.374,-0.667 3.659,-0.667 1.319,0 2.493,0.189 3.523,0.569 1.03,0.379 1.958,0.849 2.781,1.409l-0.618 1.162c-0.84,-0.544 -1.738,-0.989 -2.694,-1.335 -0.956,-0.346 -1.978,-0.519 -3.066,-0.519 -1.104,0 -2.138,0.189 -3.103,0.568 -0.964,0.38 -1.804,0.924 -2.521,1.632 -0.717,0.709 -1.278,1.562 -1.681,2.559 -0.404,0.997 -0.606,2.105 -0.606,3.325 0,1.219 0.206,2.324 0.618,3.313 0.412,0.989 0.981,1.829 1.706,2.521 0.725,0.693 1.574,1.229 2.546,1.608 0.973,0.379 2.011,0.568 3.115,0.568 1.088,0 2.11,-0.173 3.066,-0.519 0.956,-0.346 1.854,-0.783 2.695,-1.31l0.495 1.137z"/>
  <path id="6" class="fil1" d="M124.597 14.413l-3.733 8.875 7.466 0 -3.733 -8.875zm6.601 15.6l-2.348 -5.538 -8.505 0 -2.325 5.538 -1.458 0 7.936 -18.419 0.247 0 7.936 18.419 -1.483 0z"/>
  <path id="7" class="fil1" d="M144.647 17.206c0,-0.61 -0.111,-1.17 -0.334,-1.681 -0.222,-0.511 -0.556,-0.952 -1.001,-1.323 -0.445,-0.371 -0.993,-0.663 -1.644,-0.878 -0.651,-0.214 -1.405,-0.321 -2.262,-0.321 -0.874,0 -1.747,0.074 -2.621,0.223l0 8.183c0.313,0.033 0.676,0.066 1.088,0.099 0.412,0.033 0.807,0.049 1.187,0.049 1.829,0 3.218,-0.391 4.165,-1.174 0.948,-0.783 1.422,-1.842 1.422,-3.177zm0.866 12.807l-4.945 -7.368c-0.248,0.033 -0.503,0.058 -0.766,0.075 -0.264,0.016 -0.536,0.024 -0.816,0.024 -0.33,0 -0.705,-0.008 -1.125,-0.024 -0.421,-0.017 -0.779,-0.042 -1.076,-0.075l0 7.368 -1.409 0 0 -17.949c0.676,-0.083 1.315,-0.153 1.916,-0.21 0.602,-0.058 1.257,-0.087 1.965,-0.087 1.121,0 2.11,0.132 2.967,0.396 0.857,0.264 1.574,0.63 2.151,1.1 0.577,0.469 1.014,1.034 1.311,1.694 0.296,0.659 0.445,1.384 0.445,2.175 0,1.237 -0.363,2.316 -1.088,3.239 -0.726,0.923 -1.763,1.582 -3.115,1.978l5.266 7.664 -1.681 0z"/>
  <path id="8" class="fil1" d="M163.19 20.791c0,-1.088 -0.19,-2.106 -0.57,-3.053 -0.378,-0.948 -0.939,-1.781 -1.681,-2.497 -0.741,-0.717 -1.66,-1.282 -2.756,-1.694 -1.096,-0.412 -2.361,-0.618 -3.795,-0.618 -0.577,0 -1.137,0.017 -1.681,0.05 -0.544,0.033 -0.998,0.082 -1.36,0.148l0 15.649c0.379,0.067 0.833,0.116 1.36,0.148 0.528,0.033 1.129,0.05 1.805,0.05 1.434,0 2.694,-0.21 3.782,-0.63 1.088,-0.42 1.995,-0.998 2.72,-1.731 0.725,-0.733 1.269,-1.599 1.632,-2.596 0.362,-0.997 0.544,-2.072 0.544,-3.226zm1.482 0c0,1.252 -0.218,2.444 -0.655,3.573 -0.436,1.128 -1.079,2.126 -1.928,2.991 -0.849,0.865 -1.912,1.554 -3.189,2.064 -1.277,0.511 -2.757,0.767 -4.438,0.767 -0.873,0 -1.701,-0.029 -2.484,-0.087 -0.784,-0.057 -1.455,-0.127 -2.015,-0.21l0 -17.875c0.56,-0.082 1.22,-0.152 1.977,-0.21 0.758,-0.058 1.566,-0.087 2.423,-0.087 1.682,0 3.165,0.256 4.45,0.767 1.286,0.511 2.362,1.187 3.227,2.027 0.865,0.841 1.521,1.806 1.966,2.893 0.444,1.088 0.666,2.216 0.666,3.387z"/>
  <g id="_982577688">
   <g>
    <path class="fil2" d="M191.856 34.542l0 -1.799c0,-0.689 -0.42,-1.139 -1.139,-1.139 -0.36,0 -0.75,0.12 -1.02,0.509 -0.21,-0.33 -0.51,-0.509 -0.959,-0.509 -0.3,0 -0.599,0.09 -0.84,0.42l0 -0.36 -0.629 0 0 2.878 0.629 0 0 -1.589c0,-0.51 0.271,-0.75 0.69,-0.75 0.42,0 0.629,0.27 0.629,0.75l0 1.589 0.63 0 0 -1.589c0,-0.51 0.3,-0.75 0.69,-0.75 0.42,0 0.629,0.27 0.629,0.75l0 1.589 0.69 0 0 0zm9.324 -2.878l-1.02 0 0 -0.87 -0.629 0 0 0.87 -0.57 0 0 0.569 0.57 0 0 1.32c0,0.659 0.27,1.049 0.989,1.049 0.27,0 0.57,-0.09 0.779,-0.21l-0.179 -0.54c-0.181,0.12 -0.39,0.15 -0.54,0.15 -0.3,0 -0.42,-0.18 -0.42,-0.48l0 -1.289 1.02 0 0 -0.569 0 0zm5.336 -0.06c-0.36,0 -0.599,0.179 -0.75,0.42l0 -0.36 -0.629 0 0 2.878 0.629 0 0 -1.619c0,-0.48 0.21,-0.75 0.6,-0.75 0.12,0 0.27,0.03 0.39,0.06l0.179 -0.599c-0.119,-0.03 -0.299,-0.03 -0.419,-0.03l0 0 0 0zm-8.065 0.299c-0.3,-0.209 -0.72,-0.299 -1.169,-0.299 -0.719,0 -1.199,0.36 -1.199,0.929 0,0.48 0.36,0.75 0.989,0.839l0.3 0.03c0.33,0.06 0.51,0.151 0.51,0.3 0,0.21 -0.24,0.36 -0.66,0.36 -0.42,0 -0.75,-0.15 -0.959,-0.3l-0.3 0.48c0.33,0.24 0.78,0.36 1.229,0.36 0.839,0 1.319,-0.39 1.319,-0.93 0,-0.509 -0.39,-0.779 -0.989,-0.869l-0.3 -0.03c-0.27,-0.03 -0.479,-0.09 -0.479,-0.27 0,-0.21 0.209,-0.33 0.539,-0.33 0.36,0 0.72,0.15 0.9,0.24l0.269 -0.51 0 0zm16.729 -0.299c-0.36,0 -0.6,0.179 -0.749,0.42l0 -0.36 -0.63 0 0 2.878 0.63 0 0 -1.619c0,-0.48 0.209,-0.75 0.599,-0.75 0.12,0 0.27,0.03 0.39,0.06l0.18 -0.599c-0.12,-0.03 -0.3,-0.03 -0.42,-0.03l0 0 0 0zm-8.034 1.498c0,0.87 0.599,1.5 1.529,1.5 0.419,0 0.719,-0.09 1.019,-0.33l-0.3 -0.51c-0.24,0.181 -0.48,0.27 -0.749,0.27 -0.51,0 -0.87,-0.36 -0.87,-0.93 0,-0.539 0.36,-0.899 0.87,-0.929 0.269,0 0.509,0.09 0.749,0.27l0.3 -0.509c-0.3,-0.24 -0.6,-0.33 -1.019,-0.33 -0.93,0 -1.529,0.629 -1.529,1.498l0 0 0 0zm5.815 0l0 -1.438 -0.629 0 0 0.36c-0.21,-0.27 -0.51,-0.42 -0.9,-0.42 -0.809,0 -1.438,0.629 -1.438,1.498 0,0.87 0.629,1.5 1.438,1.5 0.42,0 0.72,-0.15 0.9,-0.42l0 0.36 0.629 0 0 -1.44zm-2.307 0c0,-0.509 0.329,-0.929 0.869,-0.929 0.509,0 0.869,0.39 0.869,0.929 0,0.511 -0.36,0.93 -0.869,0.93 -0.54,-0.03 -0.869,-0.419 -0.869,-0.93l0 0zm-7.526 -1.498c-0.839,0 -1.439,0.599 -1.439,1.498 0,0.9 0.6,1.5 1.469,1.5 0.42,0 0.84,-0.12 1.17,-0.39l-0.3 -0.45c-0.241,0.181 -0.54,0.3 -0.84,0.3 -0.39,0 -0.779,-0.18 -0.869,-0.69l2.128 0 0 -0.239c0.03,-0.93 -0.509,-1.529 -1.319,-1.529l0 0 0 0zm0 0.539c0.39,0 0.659,0.24 0.72,0.69l-1.499 0c0.06,-0.39 0.33,-0.69 0.779,-0.69l0 0zm15.62 0.959l0 -2.578 -0.63 0 0 1.5c-0.209,-0.27 -0.509,-0.42 -0.899,-0.42 -0.81,0 -1.439,0.629 -1.439,1.498 0,0.87 0.629,1.5 1.439,1.5 0.42,0 0.72,-0.15 0.899,-0.42l0 0.36 0.63 0 0 -1.44zm-2.309 0c0,-0.509 0.33,-0.929 0.87,-0.929 0.509,0 0.869,0.39 0.869,0.929 0,0.511 -0.36,0.93 -0.869,0.93 -0.54,-0.03 -0.87,-0.419 -0.87,-0.93l0 0zm-21.045 0l0 -1.438 -0.63 0 0 0.36c-0.21,-0.27 -0.51,-0.42 -0.899,-0.42 -0.81,0 -1.44,0.629 -1.44,1.498 0,0.87 0.63,1.5 1.44,1.5 0.419,0 0.719,-0.15 0.899,-0.42l0 0.36 0.63 0 0 -1.44zm-2.339 0c0,-0.509 0.33,-0.929 0.869,-0.929 0.51,0 0.87,0.39 0.87,0.929 0,0.511 -0.36,0.93 -0.87,0.93 -0.539,-0.03 -0.869,-0.419 -0.869,-0.93z"/>
    <rect class="fil3" x="198.241" y="9.808" width="9.444" height="16.969"/>
    <path class="fil4" d="M198.841 18.293c0,-3.448 1.619,-6.506 4.107,-8.484 -1.828,-1.44 -4.137,-2.309 -6.655,-2.309 -5.966,0 -10.793,4.827 -10.793,10.793 0,5.965 4.827,10.792 10.793,10.792 2.518,0 4.827,-0.869 6.655,-2.308 -2.488,-1.949 -4.107,-5.037 -4.107,-8.484z"/>
    <path class="fil5" d="M220.427 18.293c0,5.965 -4.827,10.792 -10.793,10.792 -2.518,0 -4.827,-0.869 -6.656,-2.308 2.519,-1.979 4.108,-5.037 4.108,-8.484 0,-3.448 -1.619,-6.506 -4.108,-8.484 1.829,-1.44 4.138,-2.309 6.656,-2.309 5.966,0 10.793,4.857 10.793,10.793z"/>
   </g>
  </g>
  <path class="fil6" d="M261.653 12.315l-3.686 17.229 -4.458 0 3.688 -17.229 4.456 0zm18.752 11.124l2.345 -6.469 1.352 6.469 -3.697 0zm4.973 6.105l4.122 0 -3.598 -17.229 -3.804 0c-0.856,0 -1.578,0.497 -1.898,1.264l-6.687 15.965 4.678 0 0.93 -2.574 5.718 0 0.539 2.574zm-11.634 -5.626c0.021,-4.546 -6.287,-4.798 -6.244,-6.829 0.014,-0.618 0.602,-1.275 1.891,-1.443 0.637,-0.083 2.399,-0.148 4.394,0.771l0.783 -3.653c-1.074,-0.39 -2.452,-0.764 -4.17,-0.764 -4.405,0 -7.506,2.342 -7.531,5.694 -0.029,2.482 2.213,3.865 3.902,4.69 1.737,0.844 2.318,1.386 2.312,2.141 -0.013,1.156 -1.385,1.666 -2.668,1.686 -2.241,0.035 -3.541,-0.605 -4.578,-1.088l-0.807 3.775c1.041,0.478 2.963,0.895 4.957,0.915 4.683,0 7.745,-2.312 7.759,-5.895zm-18.46 -11.603l-7.221 17.229 -4.711 0 -3.554 -13.75c-0.216,-0.847 -0.403,-1.157 -1.059,-1.514 -1.071,-0.582 -2.841,-1.126 -4.396,-1.466l0.104 -0.499 7.584 0c0.967,0 1.837,0.642 2.056,1.756l1.877 9.97 4.638 -11.726 4.682 0z"/>
 </g>
</svg>
