<?xml version="1.0" encoding="UTF-8"?>
<!DOCTYPE svg PUBLIC "-//W3C//DTD SVG 1.1//EN" "http://www.w3.org/Graphics/SVG/1.1/DTD/svg11.dtd">
<!-- Creator: CorelDRAW Home & Student 2018 -->
<svg xmlns="http://www.w3.org/2000/svg" xml:space="preserve" width="300px" height="42px" version="1.1" style="shape-rendering:geometricPrecision; text-rendering:geometricPrecision; image-rendering:optimizeQuality; fill-rule:evenodd; clip-rule:evenodd"
viewBox="0 0 300 42"
 xmlns:xlink="http://www.w3.org/1999/xlink">
 <defs>
  <style type="text/css">
   <![CDATA[
    .str0 {stroke:black;stroke-miterlimit:22.9256}
    .fil0 {fill:none}
    .fil2 {fill:#299BD7;fill-rule:nonzero}
    .fil1 {fill:#323C7A;fill-rule:nonzero}
    .fil3 {fill:#323563;fill-rule:nonzero}
   ]]>
  </style>
 </defs>
 <g id="Layer_x0020_1">
  <metadata id="CorelCorpID_0Corel-Layer"/>
  <rect class="fil0 str0" width="300" height="42"/>
  <g id="_733223816">
   <path class="fil1" d="M133.208 12.234l-7.229 0c-0.496,0 -0.916,0.359 -0.993,0.847l-2.925 18.539c-0.057,0.365 0.226,0.695 0.597,0.695l3.451 0c0.495,0 0.916,-0.359 0.993,-0.849l0.789 -5c0.076,-0.489 0.497,-0.849 0.992,-0.849l2.288 0c4.762,0 7.51,-2.304 8.228,-6.871 0.324,-1.997 0.014,-3.567 -0.922,-4.666 -1.027,-1.208 -2.849,-1.846 -5.269,-1.846zm0.834 6.771c-0.396,2.593 -2.377,2.593 -4.294,2.593l-1.091 0 0.766 -4.844c0.045,-0.293 0.298,-0.508 0.594,-0.508l0.5 0c1.306,0 2.537,0 3.174,0.743 0.38,0.444 0.496,1.104 0.351,2.016z"/>
   <path class="fil1" d="M154.818 18.92l-3.462 0c-0.295,0 -0.55,0.216 -0.595,0.509l-0.153 0.969 -0.243 -0.352c-0.748,-1.087 -2.42,-1.451 -4.088,-1.451 -3.826,0 -7.094,2.898 -7.73,6.962 -0.33,2.028 0.14,3.967 1.29,5.319 1.055,1.242 2.565,1.76 4.361,1.76 3.082,0 4.791,-1.982 4.791,-1.982l-0.154 0.963c-0.059,0.367 0.225,0.697 0.594,0.697l3.118 0c0.496,0 0.915,-0.36 0.993,-0.849l1.871 -11.848c0.059,-0.365 -0.223,-0.697 -0.593,-0.697zm-4.826 6.739c-0.334,1.977 -1.903,3.306 -3.905,3.306 -1.006,0 -1.809,-0.323 -2.326,-0.934 -0.511,-0.607 -0.705,-1.47 -0.543,-2.433 0.313,-1.96 1.909,-3.332 3.88,-3.332 0.983,0 1.782,0.327 2.309,0.943 0.527,0.623 0.736,1.492 0.585,2.45z"/>
   <path class="fil1" d="M173.256 18.92l-3.479 0c-0.332,0 -0.644,0.166 -0.832,0.441l-4.799 7.068 -2.033 -6.791c-0.128,-0.425 -0.52,-0.718 -0.964,-0.718l-3.418 0c-0.416,0 -0.705,0.407 -0.573,0.798l3.833 11.245 -3.603 5.086c-0.283,0.401 0.002,0.951 0.492,0.951l3.474 0c0.33,0 0.638,-0.161 0.826,-0.431l11.57 -16.702c0.278,-0.4 -0.007,-0.947 -0.494,-0.947z"/>
   <path class="fil2" d="M184.774 12.234l-7.231 0c-0.493,0 -0.914,0.359 -0.991,0.847l-2.924 18.539c-0.058,0.365 0.225,0.695 0.594,0.695l3.71 0c0.345,0 0.64,-0.251 0.694,-0.594l0.83 -5.255c0.075,-0.489 0.498,-0.849 0.991,-0.849l2.288 0c4.763,0 7.511,-2.304 8.23,-6.871 0.324,-1.997 0.012,-3.567 -0.924,-4.666 -1.026,-1.208 -2.847,-1.846 -5.267,-1.846zm0.834 6.771c-0.395,2.593 -2.377,2.593 -4.294,2.593l-1.09 0 0.767 -4.844c0.045,-0.293 0.296,-0.508 0.593,-0.508l0.5 0c1.305,0 2.537,0 3.173,0.743 0.381,0.444 0.496,1.104 0.351,2.016z"/>
   <path class="fil2" d="M206.383 18.92l-3.46 0c-0.297,0 -0.55,0.216 -0.594,0.509l-0.153 0.969 -0.244 -0.352c-0.749,-1.087 -2.419,-1.451 -4.087,-1.451 -3.826,0 -7.092,2.898 -7.728,6.962 -0.33,2.028 0.138,3.967 1.288,5.319 1.057,1.242 2.564,1.76 4.36,1.76 3.083,0 4.792,-1.982 4.792,-1.982l-0.154 0.963c-0.058,0.367 0.225,0.697 0.596,0.697l3.118 0c0.493,0 0.914,-0.36 0.991,-0.849l1.872 -11.848c0.057,-0.365 -0.226,-0.697 -0.597,-0.697zm-4.826 6.739c-0.332,1.977 -1.903,3.306 -3.906,3.306 -1.003,0 -1.808,-0.323 -2.324,-0.934 -0.512,-0.607 -0.704,-1.47 -0.544,-2.433 0.315,-1.96 1.908,-3.332 3.88,-3.332 0.983,0 1.782,0.327 2.309,0.943 0.529,0.623 0.738,1.492 0.585,2.45z"/>
   <path class="fil2" d="M210.464 12.742l-2.967 18.878c-0.058,0.365 0.225,0.695 0.594,0.695l2.983 0c0.496,0 0.917,-0.359 0.993,-0.849l2.926 -18.537c0.058,-0.365 -0.225,-0.697 -0.595,-0.697l-3.34 0c-0.294,0.002 -0.549,0.218 -0.594,0.51z"/>
   <path class="fil1" d="M92.039 35.917l0.553 -3.511 -1.231 -0.029 -5.881 0 4.087 -25.912c0.013,-0.078 0.054,-0.151 0.114,-0.203 0.061,-0.052 0.138,-0.08 0.218,-0.08l9.915 0c3.292,0 5.564,0.685 6.75,2.037 0.556,0.634 0.91,1.297 1.082,2.026 0.179,0.766 0.182,1.68 0.007,2.795l-0.013 0.081 0 0.715 0.556 0.315c0.469,0.249 0.84,0.533 1.126,0.858 0.476,0.543 0.784,1.232 0.913,2.049 0.134,0.84 0.09,1.84 -0.129,2.973 -0.255,1.302 -0.664,2.437 -1.219,3.364 -0.509,0.855 -1.158,1.565 -1.929,2.114 -0.735,0.522 -1.61,0.919 -2.598,1.173 -0.958,0.249 -2.05,0.375 -3.247,0.375l-0.772 0c-0.552,0 -1.087,0.199 -1.509,0.555 -0.422,0.364 -0.701,0.86 -0.786,1.404l-0.058 0.316 -0.977 6.189 -0.044 0.228c-0.012,0.071 -0.032,0.108 -0.061,0.131 -0.027,0.023 -0.065,0.037 -0.102,0.037l-4.765 0z"/>
   <path class="fil2" d="M108.723 13.204c-0.03,0.189 -0.064,0.383 -0.102,0.581 -1.308,6.714 -5.781,9.033 -11.495,9.033l-2.909 0c-0.699,0 -1.287,0.508 -1.397,1.197l-1.489 9.446 -0.422 2.678c-0.07,0.452 0.278,0.86 0.735,0.86l5.16 0c0.611,0 1.13,-0.444 1.226,-1.046l0.051 -0.262 0.971 -6.166 0.063 -0.338c0.094,-0.604 0.615,-1.048 1.226,-1.048l0.772 0c4.999,0 8.911,-2.03 10.056,-7.904 0.477,-2.452 0.23,-4.501 -1.034,-5.942 -0.383,-0.435 -0.858,-0.795 -1.412,-1.089z"/>
   <path class="fil3" d="M107.354 12.658c-0.199,-0.057 -0.405,-0.111 -0.617,-0.158 -0.212,-0.046 -0.43,-0.087 -0.654,-0.124 -0.785,-0.126 -1.644,-0.187 -2.565,-0.187l-7.772 0c-0.191,0 -0.372,0.043 -0.535,0.122 -0.358,0.172 -0.625,0.511 -0.69,0.927l-1.652 10.471 -0.049 0.306c0.11,-0.689 0.698,-1.197 1.397,-1.197l2.909 0c5.714,0 10.187,-2.32 11.495,-9.033 0.039,-0.198 0.072,-0.392 0.102,-0.581 -0.332,-0.176 -0.69,-0.325 -1.076,-0.454 -0.095,-0.031 -0.193,-0.062 -0.293,-0.092z"/>
   <path class="fil1" d="M94.521 13.238c0.065,-0.416 0.332,-0.755 0.69,-0.926 0.164,-0.078 0.344,-0.121 0.535,-0.121l7.772 0c0.921,0 1.78,0.059 2.565,0.186 0.224,0.036 0.442,0.077 0.654,0.124 0.212,0.048 0.418,0.101 0.617,0.159 0.1,0.029 0.198,0.06 0.295,0.09 0.386,0.129 0.744,0.28 1.075,0.454 0.389,-2.481 -0.004,-4.17 -1.345,-5.7 -1.418,-1.614 -3.929,-2.343 -7.142,-2.401l-10.442 0c-0.652,0.048 -1.193,0.539 -1.296,1.194l-4.13 26.179c-0.008,0.048 -0.011,0.096 -0.01,0.144 0.005,0.457 0.377,0.841 0.85,0.841l6.122 0 1.538 -9.752 1.652 -10.471z"/>
  </g>
 </g>
</svg>
